<svg xmlns="http://www.w3.org/2000/svg" viewBox="0 0 512 512">
  <defs>
    <linearGradient id="gradient" x1="0%" y1="0%" x2="100%" y2="100%">
      <stop offset="0%" stop-color="#4285f4" />
      <stop offset="100%" stop-color="#34a853" />
    </linearGradient>
  </defs>
  <rect width="512" height="512" rx="64" ry="64" fill="url(#gradient)" />
  <g fill="white">
    <path d="M256 128c-70.7 0-128 57.3-128 128s57.3 128 128 128 128-57.3 128-128-57.3-128-128-128zm0 224c-53 0-96-43-96-96s43-96 96-96 96 43 96 96-43 96-96 96z"/>
    <path d="M256 176c-44.2 0-80 35.8-80 80s35.8 80 80 80 80-35.8 80-80-35.8-80-80-80zm0 128c-26.5 0-48-21.5-48-48s21.5-48 48-48 48 21.5 48 48-21.5 48-48 48z"/>
    <path d="M384 128h-32v32h32v-32zM160 128h-32v32h32v-32z"/>
    <path d="M320 352H192v32h128v-32z"/>
    <path d="M256 96c-8.8 0-16-7.2-16-16V48c0-8.8 7.2-16 16-16s16 7.2 16 16v32c0 8.8-7.2 16-16 16z"/>
    <path d="M256 480c-8.8 0-16-7.2-16-16v-32c0-8.8 7.2-16 16-16s16 7.2 16 16v32c0 8.8-7.2 16-16 16z"/>
  </g>
</svg>